<svg width="1200" height="24" viewBox="0 0 1200 24" fill="none" xmlns="http://www.w3.org/2000/svg">
<line y1="11.5" x2="421" y2="11.5" stroke="#E6E6E6"/>
<rect x="453.5" y="0.5" width="34" height="23" rx="3.5" fill="white" fill-opacity="0.5" stroke="#D9D9D9"/>
<path fill-rule="evenodd" clip-rule="evenodd" d="M471.805 8.14192L470.028 8.52349V7.08202L471.805 6.70752V8.14192ZM464.58 7.52718L462.852 7.89461L462.845 13.5545C462.845 14.6003 463.631 15.3705 464.68 15.3705C465.26 15.3705 465.685 15.2645 465.919 15.1373V13.7029C465.692 13.7948 464.573 14.1198 464.573 13.074V10.5656H465.919V9.06051H464.573L464.58 7.52718ZM460.394 10.4737C460.019 10.4737 459.792 10.5797 459.792 10.8553C459.792 11.1562 460.182 11.2885 460.666 11.4527C461.455 11.7204 462.494 12.0728 462.498 13.3779C462.498 14.6427 461.485 15.3705 460.012 15.3705C459.403 15.3705 458.737 15.2504 458.078 14.9677V13.286C458.673 13.611 459.424 13.8513 460.012 13.8513C460.408 13.8513 460.692 13.7453 460.692 13.4203C460.692 13.087 460.269 12.9346 459.758 12.7507C458.981 12.4706 458 12.1173 458 10.9401C458 9.68939 458.956 8.94039 460.394 8.94039C460.982 8.94039 461.563 9.03225 462.151 9.26543V10.9259C461.613 10.6362 460.933 10.4737 460.394 10.4737ZM480.943 8.94039C482.622 8.94039 483.5 10.3677 483.5 12.1766C483.5 12.2743 483.495 12.4377 483.491 12.5762V12.5762V12.5762V12.5762V12.5763C483.488 12.6782 483.486 12.7666 483.486 12.8055H480.022C480.1 13.6393 480.709 13.8796 481.396 13.8796C482.097 13.8796 482.65 13.7312 483.132 13.4909V14.9041C482.65 15.1726 482.012 15.3634 481.17 15.3634C479.441 15.3634 478.237 14.2894 478.237 12.1625C478.237 10.3677 479.257 8.94039 480.943 8.94039ZM480.936 10.3748C480.49 10.3748 480.001 10.7069 480.001 11.5054H481.828C481.828 10.7069 481.368 10.3748 480.936 10.3748ZM468.122 9.58341L468.009 9.06052H466.479V15.2433H468.25V11.0531C468.668 10.5091 469.376 10.608 469.595 10.6857V9.06052C469.369 8.97573 468.54 8.82028 468.122 9.58341ZM470.027 9.06052H471.805V15.2433H470.027V9.06052ZM475.503 8.94039C474.809 8.94039 474.362 9.26543 474.114 9.49154L474.022 9.05345H472.464V17.2925L474.235 16.918L474.242 14.9183C474.497 15.102 474.872 15.3634 475.496 15.3634C476.764 15.3634 477.918 14.3459 477.918 12.106C477.911 10.0568 476.742 8.94039 475.503 8.94039ZM475.078 13.8089C474.66 13.8089 474.412 13.6605 474.242 13.4768L474.235 10.8553C474.419 10.6504 474.674 10.509 475.078 10.509C475.722 10.509 476.169 11.2298 476.169 12.1554C476.169 13.1023 475.729 13.8089 475.078 13.8089Z" fill="#6461FC"/>
<rect x="496.5" y="0.5" width="34" height="23" rx="3.5" fill="white" fill-opacity="0.5" stroke="#D9D9D9"/>
<path fill-rule="evenodd" clip-rule="evenodd" d="M504.346 8.93296C504.816 8.97261 505.286 8.69506 505.58 8.34316C505.869 7.98135 506.06 7.49563 506.011 7C505.595 7.01983 505.081 7.27755 504.787 7.63936C504.518 7.95161 504.287 8.45715 504.346 8.93296ZM509.938 15.3167V7.58981H512.802C514.281 7.58981 515.314 8.62072 515.314 10.1274C515.314 11.6342 514.261 12.675 512.763 12.675H511.123V15.3167H509.938ZM506.006 9.02714C505.592 9.00301 505.214 9.1532 504.909 9.27451C504.712 9.35257 504.546 9.41868 504.42 9.41868C504.278 9.41868 504.104 9.34904 503.91 9.27085C503.655 9.16839 503.364 9.05125 503.058 9.05687C502.358 9.06679 501.707 9.46825 501.35 10.1076C500.615 11.3863 501.159 13.2796 501.869 14.3205C502.216 14.8359 502.632 15.4009 503.181 15.3811C503.422 15.3719 503.596 15.2974 503.775 15.2202C503.982 15.1314 504.197 15.0391 504.532 15.0391C504.856 15.0391 505.061 15.129 505.259 15.2152C505.446 15.2973 505.626 15.376 505.893 15.3712C506.461 15.3613 506.819 14.8557 507.166 14.3403C507.542 13.7871 507.706 13.2471 507.731 13.1652L507.734 13.1557C507.734 13.1551 507.729 13.153 507.721 13.1492C507.596 13.0911 506.637 12.6469 506.628 11.4557C506.619 10.4559 507.388 9.94937 507.509 9.86963L507.509 9.86962C507.517 9.86477 507.522 9.8615 507.524 9.85979C507.034 9.12626 506.27 9.04696 506.006 9.02714ZM517.478 15.3761C518.222 15.3761 518.913 14.9945 519.226 14.3898H519.25V15.3166H520.347V11.4706C520.347 10.3554 519.466 9.63672 518.11 9.63672C516.851 9.63672 515.921 10.3653 515.887 11.3665H516.954C517.042 10.8907 517.478 10.5784 518.075 10.5784C518.8 10.5784 519.206 10.9204 519.206 11.5499V11.9761L517.728 12.0653C516.352 12.1496 515.608 12.7195 515.608 13.7108C515.608 14.712 516.376 15.3761 517.478 15.3761ZM517.796 14.4592C517.165 14.4592 516.763 14.1519 516.763 13.6811C516.763 13.1954 517.15 12.9129 517.889 12.8683L519.206 12.784V13.2202C519.206 13.9438 518.599 14.4592 517.796 14.4592ZM523.985 15.619C523.51 16.9721 522.967 17.4181 521.811 17.4181C521.723 17.4181 521.429 17.4082 521.361 17.3884V16.4616C521.434 16.4715 521.615 16.4814 521.708 16.4814C522.232 16.4814 522.526 16.2584 522.707 15.6785L522.815 15.3365L520.807 9.71108H522.046L523.442 14.2758H523.466L524.862 9.71108H526.066L523.985 15.619ZM511.123 8.60087H512.489C513.517 8.60087 514.104 9.15598 514.104 10.1324C514.104 11.1088 513.517 11.6688 512.484 11.6688H511.123V8.60087Z" fill="black"/>
<rect x="539.5" y="0.5" width="34" height="23" rx="3.5" fill="white" fill-opacity="0.5" stroke="#D9D9D9"/>
<path fill-rule="evenodd" clip-rule="evenodd" d="M556.75 17.1569C555.558 18.1852 554.013 18.806 552.324 18.806C548.555 18.806 545.5 15.7154 545.5 11.903C545.5 8.09057 548.555 5 552.324 5C554.013 5 555.558 5.62075 556.75 6.64903C557.942 5.62075 559.487 5 561.176 5C564.945 5 568 8.09057 568 11.903C568 15.7154 564.945 18.806 561.176 18.806C559.487 18.806 557.942 18.1852 556.75 17.1569Z" fill="#ED0006"/>
<path fill-rule="evenodd" clip-rule="evenodd" d="M556.75 17.1569C558.217 15.8908 559.148 14.0068 559.148 11.903C559.148 9.79917 558.217 7.91517 556.75 6.64903C557.942 5.62075 559.487 5 561.176 5C564.945 5 568 8.09057 568 11.903C568 15.7154 564.945 18.806 561.176 18.806C559.487 18.806 557.942 18.1852 556.75 17.1569Z" fill="#F9A000"/>
<path fill-rule="evenodd" clip-rule="evenodd" d="M556.75 6.64893C558.217 7.91506 559.148 9.79905 559.148 11.9029C559.148 14.0067 558.217 15.8906 556.75 17.1568C555.283 15.8906 554.353 14.0067 554.353 11.9029C554.353 9.79905 555.283 7.91506 556.75 6.64893Z" fill="#FF5E00"/>
<rect x="582.5" y="0.5" width="34" height="23" rx="3.5" fill="white" fill-opacity="0.5" stroke="#D9D9D9"/>
<path fill-rule="evenodd" clip-rule="evenodd" d="M592.691 16.2582H590.57L588.98 10.1924C588.905 9.91334 588.745 9.66667 588.509 9.5504C587.921 9.25823 587.273 9.0257 586.565 8.90843V8.6749H589.981C590.453 8.6749 590.806 9.0257 590.865 9.43313L591.69 13.8086L593.809 8.6749H595.871L592.691 16.2582ZM597.049 16.2582H595.047L596.696 8.6749H598.698L597.049 16.2582ZM601.289 10.7757C601.348 10.3673 601.701 10.1337 602.114 10.1337C602.762 10.0751 603.468 10.1924 604.057 10.4835L604.411 8.85081C603.822 8.61727 603.173 8.5 602.585 8.5C600.642 8.5 599.227 9.55041 599.227 11.0082C599.227 12.1173 600.229 12.6996 600.936 13.0504C601.701 13.4002 601.996 13.6338 601.937 13.9836C601.937 14.5082 601.348 14.7418 600.759 14.7418C600.052 14.7418 599.345 14.5669 598.698 14.2747L598.345 15.9085C599.052 16.1996 599.817 16.3169 600.524 16.3169C602.703 16.3745 604.057 15.3251 604.057 13.75C604.057 11.7665 601.289 11.6502 601.289 10.7757V10.7757ZM611.065 16.2582L609.475 8.6749H607.768C607.414 8.6749 607.061 8.90843 606.943 9.25823L603.998 16.2582H606.06L606.471 15.1502H609.004L609.24 16.2582H611.065ZM608.062 10.7171L608.65 13.5751H607.002L608.062 10.7171Z" fill="#172B85"/>
<rect x="625.5" y="0.5" width="34" height="23" rx="3.5" fill="#1F72CD" stroke="#D9D9D9"/>
<path fill-rule="evenodd" clip-rule="evenodd" d="M631.307 8.43066L628.044 15.8641H631.95L632.435 14.6789H633.542L634.026 15.8641H638.326V14.9595L638.709 15.8641H640.933L641.316 14.9404V15.8641H650.258L651.346 14.7097L652.364 15.8641L656.957 15.8737L653.684 12.1681L656.957 8.43066H652.435L651.377 9.56375L650.391 8.43066H640.662L639.827 10.3493L638.972 8.43066H635.074V9.30447L634.64 8.43066H631.307ZM644.661 9.48622H649.796L651.366 11.2327L652.988 9.48622H654.558L652.172 12.1671L654.558 14.8171H652.916L651.346 13.0503L649.716 14.8171H644.661V9.48622ZM645.929 11.5643V10.5906V10.5897H649.133L650.531 12.1469L649.071 13.7127H645.929V12.6496H648.73V11.5643H645.929ZM632.063 9.48622H633.967L636.131 14.5269V9.48622H638.217L639.889 13.1004L641.43 9.48622H643.505V14.8202H642.242L642.232 10.6405L640.391 14.8202H639.261L637.41 10.6405V14.8202H634.812L634.319 13.6244H631.658L631.167 14.8192H629.775L632.063 9.48622ZM632.112 12.5189L632.989 10.3887L633.865 12.5189H632.112Z" fill="white"/>
<rect x="668.5" y="0.5" width="34" height="23" rx="3.5" fill="white" fill-opacity="0.5" stroke="#D9D9D9"/>
<path d="M682.228 22.5498L701.503 16.7998V19.9998C701.503 21.4081 700.361 22.5498 698.953 22.5498H682.228Z" fill="#FD6020"/>
<path fill-rule="evenodd" clip-rule="evenodd" d="M697.819 9.11084C698.88 9.11084 699.463 9.59438 699.463 10.5077C699.516 11.2062 699.039 11.7972 698.402 11.9046L699.834 13.8925H698.721L697.501 11.9584H697.395V13.8925H696.494V9.11084H697.819ZM697.395 11.3137H697.66C698.243 11.3137 698.508 11.045 698.508 10.5615C698.508 10.1317 698.243 9.86304 697.66 9.86304H697.395V11.3137ZM693.365 13.8925H695.91V13.0866H694.267V11.7972H695.857V10.9913H694.267V9.91674H695.91V9.11084H693.365V13.8925V13.8925ZM690.714 12.3345L689.495 9.11084H688.54L690.502 14H690.979L692.941 9.11084H691.987L690.714 12.3345V12.3345ZM679.951 11.5286C679.951 12.8717 681.011 14 682.337 14C682.761 14 683.132 13.8925 683.503 13.7314V12.6568C683.238 12.9792 682.867 13.1941 682.443 13.1941C681.594 13.1941 680.905 12.5494 680.905 11.6897V11.5823C680.852 10.7227 681.541 9.97048 682.39 9.91675C682.814 9.91675 683.238 10.1317 683.503 10.454V9.37948C683.185 9.16458 682.761 9.11085 682.39 9.11085C681.011 9.0034 679.951 10.1317 679.951 11.5286V11.5286ZM678.307 10.9376C677.777 10.7227 677.618 10.6152 677.618 10.3466C677.671 10.0242 677.936 9.75557 678.254 9.8093C678.519 9.8093 678.784 9.97048 678.996 10.1854L679.474 9.54066C679.102 9.2183 678.625 9.00339 678.148 9.00339C677.406 8.94967 676.769 9.54066 676.716 10.2928V10.3466C676.716 10.9913 676.981 11.3674 677.83 11.636C678.042 11.6897 678.254 11.7972 678.466 11.9046C678.625 12.0121 678.731 12.1733 678.731 12.3882C678.731 12.7643 678.413 13.0866 678.095 13.0866H678.042C677.618 13.0866 677.247 12.818 677.088 12.4419L676.504 13.0329C676.822 13.6239 677.459 13.9463 678.095 13.9463C678.943 14 679.633 13.3553 679.686 12.4956V12.3345C679.633 11.6897 679.367 11.3674 678.307 10.9376V10.9376ZM675.232 13.8925H676.133V9.11084H675.232V13.8925V13.8925ZM671.043 9.11086H672.369H672.634C673.906 9.16459 674.914 10.2391 674.861 11.5286C674.861 12.227 674.542 12.8718 674.012 13.3553C673.535 13.7314 672.952 13.9463 672.369 13.8926H671.043V9.11086ZM672.209 13.0866C672.634 13.1404 673.111 12.9792 673.429 12.7106C673.747 12.3882 673.906 11.9584 673.906 11.4748C673.906 11.045 673.747 10.6152 673.429 10.2928C673.111 10.0242 672.634 9.86302 672.209 9.91675H671.944V13.0866H672.209Z" fill="black"/>
<path fill-rule="evenodd" clip-rule="evenodd" d="M686.208 9C684.882 9 683.769 10.0745 683.769 11.4714C683.769 12.8146 684.829 13.9429 686.208 13.9966C687.586 14.0503 688.647 12.9221 688.7 11.5252C688.647 10.1283 687.586 9 686.208 9V9Z" fill="#FD6020"/>
<rect x="711.5" y="0.5" width="34" height="23" rx="3.5" fill="white" fill-opacity="0.5" stroke="#D9D9D9"/>
<path d="M719.071 7.14441C719.1 5.95034 720.165 4.91967 721.351 4.90222C722.535 4.89857 723.72 4.90169 724.905 4.90064C724.901 8.89572 724.911 12.8912 724.9 16.8861C724.854 18.0657 723.801 19.0767 722.628 19.0976C721.441 19.1019 720.254 19.0982 719.068 19.0994V14.1124C720.22 14.3847 721.429 14.5006 722.605 14.32C723.308 14.2069 724.077 13.8617 724.315 13.1324C724.49 12.5086 724.392 11.8521 724.418 11.2119V9.72503H722.383C722.374 10.7084 722.401 11.6935 722.368 12.6757C722.313 13.2794 721.715 13.663 721.146 13.6425C720.44 13.65 719.04 13.1307 719.04 13.1307C719.037 11.2883 719.061 8.98091 719.071 7.14458V7.14441Z" fill="url(#paint0_linear_303_1077)"/>
<path d="M733.318 12.2873C733.832 12.2984 734.348 12.2646 734.86 12.3049C735.378 12.4015 735.503 13.1859 735.043 13.4428C734.729 13.612 734.355 13.5058 734.015 13.5357H733.318V12.2873V12.2873ZM735.157 10.8743C735.271 11.2771 734.883 11.6388 734.495 11.5833H733.318C733.326 11.2034 733.302 10.7911 733.33 10.4312C733.801 10.4445 734.277 10.4041 734.746 10.4523C734.947 10.5029 735.116 10.6684 735.157 10.8743V10.8743ZM737.989 4.90042C738.011 5.66972 737.992 6.47968 737.998 7.26459C737.997 10.4557 738.001 13.6468 737.996 16.8381C737.975 18.0341 736.915 19.0733 735.728 19.0971C734.539 19.102 733.35 19.0979 732.161 19.0992V14.2749C733.456 14.2682 734.752 14.2884 736.047 14.2647C736.648 14.227 737.306 13.8307 737.334 13.1696C737.405 12.5057 736.779 12.0464 736.185 11.9739C735.956 11.968 735.963 11.9073 736.185 11.8808C736.751 11.7583 737.196 11.1717 737.03 10.5841C736.888 9.96618 736.205 9.727 735.636 9.72819C734.478 9.72032 733.319 9.72709 732.161 9.72481C732.169 8.82416 732.145 7.92255 732.174 7.02256C732.265 5.84819 733.352 4.87971 734.523 4.90073C735.678 4.90055 736.834 4.90055 737.989 4.90051V4.90042Z" fill="url(#paint1_linear_303_1077)"/>
<path d="M725.663 10.3245C725.556 10.3472 725.642 9.9596 725.614 9.81256C725.621 8.88286 725.599 7.95214 725.627 7.0231C725.718 5.84376 726.813 4.87287 727.989 4.90048H731.451C731.448 8.89556 731.458 12.8911 731.446 16.886C731.401 18.0655 730.348 19.0765 729.174 19.0974C727.988 19.1019 726.801 19.0981 725.614 19.0993V13.6353C726.425 14.3004 727.526 14.4039 728.536 14.4057C729.297 14.4054 730.054 14.2881 730.793 14.1125V13.1115C729.96 13.5267 728.981 13.7905 728.057 13.5519C727.413 13.3915 726.945 12.7689 726.956 12.1041C726.881 11.4127 727.287 10.6827 727.966 10.4772C728.81 10.2131 729.729 10.415 730.52 10.7584C730.689 10.8471 730.861 10.9571 730.793 10.674V9.88716C729.471 9.57251 728.063 9.45672 726.735 9.79902C726.35 9.90751 725.975 10.072 725.663 10.3246V10.3245Z" fill="url(#paint2_linear_303_1077)"/>
<line x1="778" y1="11.5" x2="1200" y2="11.5" stroke="#E6E6E6"/>
<defs>
<linearGradient id="paint0_linear_303_1077" x1="718.944" y1="12.136" x2="724.809" y2="12.136" gradientUnits="userSpaceOnUse">
<stop stop-color="#0F6EB6"/>
<stop offset="1" stop-color="#006DBA"/>
</linearGradient>
<linearGradient id="paint1_linear_303_1077" x1="732.121" y1="11.6962" x2="737.962" y2="11.6962" gradientUnits="userSpaceOnUse">
<stop stop-color="#58B03A"/>
<stop offset="1" stop-color="#55B330"/>
</linearGradient>
<linearGradient id="paint2_linear_303_1077" x1="725.606" y1="11.8338" x2="731.45" y2="11.8338" gradientUnits="userSpaceOnUse">
<stop stop-color="#DE0D3D"/>
<stop offset="1" stop-color="#E30138"/>
</linearGradient>
</defs>
</svg>
