<svg width="16" height="16" viewBox="0 0 16 16" fill="none" xmlns="http://www.w3.org/2000/svg">
<g id="question-circle">
<path id="question-circle_2" d="M7.99967 15.1663C4.04767 15.1663 0.833008 11.9517 0.833008 7.99967C0.833008 4.04767 4.04767 0.833008 7.99967 0.833008C11.9517 0.833008 15.1663 4.04767 15.1663 7.99967C15.1663 11.9517 11.9517 15.1663 7.99967 15.1663ZM7.99967 1.83301C4.59901 1.83301 1.83301 4.59901 1.83301 7.99967C1.83301 11.4003 4.59901 14.1663 7.99967 14.1663C11.4003 14.1663 14.1663 11.4003 14.1663 7.99967C14.1663 4.59901 11.4003 1.83301 7.99967 1.83301ZM8.47363 8.90902C8.48963 8.86102 8.58036 8.67904 9.06836 8.35238C9.85503 7.82504 10.207 7.07164 10.061 6.23031C9.91304 5.38031 9.2203 4.68236 8.3763 4.53369C7.75964 4.42436 7.13499 4.5903 6.66032 4.98763C6.18099 5.38963 5.90641 5.9796 5.90641 6.60693C5.90641 6.88293 6.13041 7.10693 6.40641 7.10693C6.68241 7.10693 6.90641 6.88293 6.90641 6.60693C6.90641 6.27627 7.05106 5.96508 7.30306 5.75374C7.55373 5.54374 7.87364 5.45774 8.20231 5.51774C8.63298 5.59374 9.00033 5.96504 9.07633 6.40104C9.105 6.56571 9.19239 7.06566 8.51172 7.521C7.96039 7.891 7.64703 8.23033 7.52637 8.59033C7.43837 8.85233 7.57963 9.13563 7.84163 9.22363C7.8943 9.24163 7.94766 9.24967 8.00033 9.24967C8.20833 9.24967 8.40297 9.11768 8.47363 8.90902ZM8.67969 10.9997C8.67969 10.6317 8.38169 10.333 8.01302 10.333H8.00635C7.63835 10.333 7.34294 10.6317 7.34294 10.9997C7.34294 11.3677 7.64502 11.6663 8.01302 11.6663C8.38102 11.6663 8.67969 11.3677 8.67969 10.9997Z" fill="#260266"/>
</g>
</svg>
